<?xml version="1.0" encoding="UTF-8" standalone="no"?><!DOCTYPE svg PUBLIC "-//W3C//DTD SVG 1.1//EN" "http://www.w3.org/Graphics/SVG/1.1/DTD/svg11.dtd"><svg width="100%" height="100%" viewBox="0 0 100 100" version="1.1" xmlns="http://www.w3.org/2000/svg" xmlns:xlink="http://www.w3.org/1999/xlink" xml:space="preserve" style="fill-rule:evenodd;clip-rule:evenodd;stroke-linejoin:round;stroke-miterlimit:1.41421;"><path d="M34.177,10.328c-0.613,-1.435 -0.573,-3.065 0.108,-4.469c0.682,-1.403 1.938,-2.443 3.445,-2.849c3.921,-0.984 8.025,-1.526 12.254,-1.526c26.777,0 48.516,21.739 48.516,48.516c0,26.777 -21.739,48.516 -48.516,48.516c-24.078,0 -44.083,-17.578 -47.87,-40.591c-0.236,-1.538 0.208,-3.102 1.217,-4.286c1.008,-1.184 2.481,-1.872 4.037,-1.885c0,-0.05 0.001,-0.05 0.001,-0.05c2.205,-0.018 4.077,1.611 4.364,3.798c2.646,18.743 18.777,33.169 38.251,33.169c21.344,0 38.671,-17.328 38.671,-38.671c0,-21.343 -17.327,-38.671 -38.671,-38.671c-3.657,0 -7.197,0.509 -10.551,1.459c-2.118,0.623 -4.368,-0.437 -5.234,-2.468c-0.022,0.009 -0.022,0.009 -0.022,0.008l0,0Z" style="fill:#fff;"/></svg>